<?xml version="1.0" encoding="UTF-8"?>
<svg version="1.1" xmlns="http://www.w3.org/2000/svg" width="285" height="285">
<path d="M0 0 C1.11264725 -0.00101212 1.11264725 -0.00101212 2.24777222 -0.00204468 C13.16258076 0.01375441 23.52520588 0.40587421 34.125 3.25 C34.77597656 3.42160645 35.42695313 3.59321289 36.09765625 3.77001953 C73.79754184 13.93046557 105.2342323 37.73773326 125.06201172 71.36230469 C137.45885412 93.37709234 143.35450108 116.91515166 143.375 142.125 C143.37567474 142.86676483 143.37634949 143.60852966 143.37704468 144.37277222 C143.36124559 155.28758076 142.96912579 165.65020588 140.125 176.25 C139.95339355 176.90097656 139.78178711 177.55195313 139.60498047 178.22265625 C129.44453443 215.92254184 105.63726674 247.3592323 72.01269531 267.18701172 C49.99790766 279.58385412 26.45984834 285.47950108 1.25 285.5 C0.50823517 285.50067474 -0.23352966 285.50134949 -0.99777222 285.50204468 C-11.91258076 285.48624559 -22.27520588 285.09412579 -32.875 282.25 C-33.52597656 282.07839355 -34.17695312 281.90678711 -34.84765625 281.72998047 C-72.54754184 271.56953443 -103.9842323 247.76226674 -123.81201172 214.13769531 C-136.20885412 192.12290766 -142.10450108 168.58484834 -142.125 143.375 C-142.12567474 142.63323517 -142.12634949 141.89147034 -142.12704468 141.12722778 C-142.11124559 130.21241924 -141.71912579 119.84979412 -138.875 109.25 C-138.70339355 108.59902344 -138.53178711 107.94804688 -138.35498047 107.27734375 C-128.19453443 69.57745816 -104.38726674 38.1407677 -70.76269531 18.31298828 C-48.74790766 5.91614588 -25.20984834 0.02049892 0 0 Z " fill="#FAFAFA" transform="translate(141.875,-0.24999999999999997)"/>
<path d="M0 0 C1.00546875 0.32145996 1.00546875 0.32145996 2.03125 0.64941406 C14.41326101 4.67708526 25.22628967 10.72046599 36 18 C33.57591931 23.62095221 28.92651452 27.52305854 24.6875 31.8125 C23.83220703 32.70904297 22.97691406 33.60558594 22.09570312 34.52929688 C21.26361328 35.37169922 20.43152344 36.21410156 19.57421875 37.08203125 C18.43859497 38.24569214 18.43859497 38.24569214 17.2800293 39.43286133 C15 41 15 41 12.38452148 40.82421875 C9.55380595 39.84577136 7.01931527 38.59518805 4.375 37.1875 C-13.44776093 28.09023798 -34.12914295 25.75421789 -53.5 31.77734375 C-62.30909383 35.0666368 -71.39661746 39.24855956 -78 46 C-78.66 46 -79.32 46 -80 46 C-80 46.66 -80 47.32 -80 48 C-81.42578125 49.33203125 -81.42578125 49.33203125 -83.3125 50.8125 C-86.31414779 53.27554567 -88.09550945 55.59196428 -90 59 C-90.66 59 -91.32 59 -92 59 C-92.26039062 59.69609375 -92.52078125 60.3921875 -92.7890625 61.109375 C-94.12037457 64.28734575 -95.73175342 67.22183381 -97.375 70.25 C-105.86982493 86.93665818 -108.23213254 107.53505993 -103.3125 125.6875 C-102.57877538 127.80489216 -101.80963183 129.91045515 -101 132 C-100.66097656 133.00804687 -100.32195312 134.01609375 -99.97265625 135.0546875 C-93.09313082 153.90605611 -75.58437804 168.67238556 -60.76416016 181.44970703 C-58.39848758 183.52859174 -56.19640824 185.74422937 -54 188 C-51.12442341 190.91053801 -48.24125906 193.72424022 -45.125 196.375 C-41.56713798 199.41430723 -38.28558006 202.67363694 -35 206 C-31.15636788 209.89128291 -27.26386041 213.60679659 -23.07421875 217.12890625 C-21.36603687 218.66980855 -19.78938582 220.23695948 -18.20703125 221.90234375 C-17.7179126 222.41273193 -17.22879395 222.92312012 -16.72485352 223.44897461 C-15.75716117 224.46664544 -14.80013638 225.49459013 -13.85522461 226.53344727 C-12.39147441 228.12470957 -12.39147441 228.12470957 -10 230 C-7.27879721 230.0201198 -6.32440257 229.26997261 -4.25390625 227.546875 C-3.69574219 226.95390625 -3.13757813 226.3609375 -2.5625 225.75 C-1.72912109 224.87601562 -1.72912109 224.87601562 -0.87890625 223.984375 C-0.25886719 223.32953125 0.36117187 222.6746875 1 222 C4.30136778 218.68541206 7.61939724 215.38759161 10.93669128 212.08895874 C13.512109 209.52695589 16.08484315 206.96226515 18.6574707 204.39746094 C20.01530979 203.04468415 21.37404015 201.69280141 22.73364258 200.34179688 C24.70368848 198.38385754 26.670507 196.4227262 28.63671875 194.4609375 C29.24505051 193.85776703 29.85338226 193.25459656 30.48014832 192.63314819 C31.0444606 192.06891144 31.60877289 191.50467468 32.19018555 190.92333984 C32.68584518 190.42990082 33.18150482 189.93646179 33.69218445 189.42807007 C35.22682623 187.82536721 35.22682623 187.82536721 37 185 C37.66 185 38.32 185 39 185 C39 184.34 39 183.68 39 183 C40.49609375 181.5625 40.49609375 181.5625 42.4375 180 C45.15188238 177.85474956 45.15188238 177.85474956 47 175 C47.66 175 48.32 175 49 175 C49.33 174.01 49.66 173.02 50 172 C50.66 172 51.32 172 52 172 C52.28359375 171.4121875 52.5671875 170.824375 52.859375 170.21875 C53.89058762 168.21282957 55.01181375 166.3820431 56.25 164.5 C63.39700154 153.09431318 68.17102274 141.36545121 70 128 C69.21613419 128.05551529 68.43226837 128.11103058 67.62464905 128.16822815 C57.77590352 128.83437222 47.92982863 129.29169656 38.0625 129.5625 C37.28812466 129.58390045 36.51374931 129.6053009 35.71590805 129.62734985 C2.17381278 130.44813096 2.17381278 130.44813096 -8.91871643 120.77381897 C-14.19951249 115.54906958 -18.49306611 109.53422767 -22 103 C-20.70144129 100.13615657 -19.33458918 98.090927 -17.09838867 95.88720703 C-16.51405563 95.30625275 -15.9297226 94.72529846 -15.3276825 94.1267395 C-14.69747696 93.50999359 -14.06727142 92.89324768 -13.41796875 92.2578125 C-12.76677567 91.61182098 -12.11558258 90.96582947 -11.44465637 90.30026245 C-9.36363507 88.23702952 -7.27606379 86.18059533 -5.1875 84.125 C-3.11049263 82.07572465 -1.03500102 80.0249723 1.03752136 77.97116089 C2.32582425 76.69498794 3.61679059 75.42149618 4.9108429 74.15115356 C8.51125191 70.59034438 11.80352419 66.92696897 15 63 C17.6875 60.125 17.6875 60.125 20 58 C20.66 58 21.32 58 22 58 C22.20625 57.443125 22.4125 56.88625 22.625 56.3125 C24.1429471 53.75958897 25.96033569 52.31993959 28.27734375 50.50390625 C30.99231975 48.13368911 33.20235463 45.35478861 35.484375 42.57421875 C36.23460937 41.79498047 36.23460937 41.79498047 37 41 C37.66 41 38.32 41 39 41 C39 40.34 39 39.68 39 39 C40.6222454 37.29006566 42.29413425 35.62652316 44 34 C44.53625 33.401875 45.0725 32.80375 45.625 32.1875 C47 31 47 31 50 31 C51.46180725 32.39527893 51.46180725 32.39527893 53.04321289 34.36938477 C57.461136 39.63736133 62.36272583 44.32227991 67.30859375 49.08984375 C69.29402865 51.02491706 71.27478585 52.96475985 73.25585938 54.90429688 C76.35375452 57.93614092 79.45738317 60.96118446 82.58569336 63.96166992 C85.1357657 66.40860998 87.66300331 68.87719242 90.17656136 71.36160469 C91.59257436 72.74939283 93.0316487 74.11352502 94.47105408 75.47703552 C95.32937332 76.3314473 96.18769257 77.18585907 97.07202148 78.06616211 C97.83256332 78.80370224 98.59310516 79.54124237 99.37669373 80.3011322 C101 83 101 83 101 92 C89.45 92 77.9 92 66 92 C65.34 90.68 64.68 89.36 64 88 C62.67140284 87.32394392 61.33705236 86.65917616 60 86 C58.0209125 84.15911693 56.12546225 82.3144544 54.25 80.375 C53.74339844 79.859375 53.23679688 79.34375 52.71484375 78.8125 C51.47196098 77.54616661 50.23534724 76.2736856 49 75 C45.99171418 76.31773204 44.26003628 77.60401219 42.25 80.1875 C39.99604643 82.93789398 37.65052869 85.26332314 34.9375 87.5625 C31.51381861 90.47099886 28.80283974 93.49645032 26 97 C24.02 98.98 24.02 98.98 22 101 C48.07 101 74.14 101 101 101 C101 140.36721311 101 140.36721311 97 152 C96.63777344 153.19496094 96.27554688 154.38992187 95.90234375 155.62109375 C90.29077067 172.98843687 79.8003836 187.40618176 67.0625 200.25 C66.06754517 201.25341431 66.06754517 201.25341431 65.05249023 202.27709961 C60.25657763 207 60.25657763 207 58 207 C57.76667969 207.57234375 57.53335938 208.1446875 57.29296875 208.734375 C55.69219161 211.53936214 53.76933349 213.15811727 51.3125 215.25 C47.38245788 218.68808002 43.94682688 222.23850335 40.5859375 226.22265625 C38.28121919 228.80553021 35.69666451 230.83094376 33 233 C30.71287521 235.24243852 28.4675923 237.52334134 26.22460938 239.80981445 C24.2571741 241.81395188 22.28493354 243.81328269 20.3125 245.8125 C19.63638672 246.50537109 18.96027344 247.19824219 18.26367188 247.91210938 C17.61591797 248.56630859 16.96816406 249.22050781 16.30078125 249.89453125 C15.71466064 250.49112549 15.12854004 251.08771973 14.5246582 251.70239258 C13 253 13 253 11 253 C10.78085938 253.55816406 10.56171875 254.11632812 10.3359375 254.69140625 C8.56724858 257.74782481 6.28514014 259.6232494 3.625 261.9375 C0.75173404 264.44289498 -1.81729128 266.76701353 -4.171875 269.76953125 C-6 272 -6 272 -8.875 272.75 C-12.843123 271.79765048 -13.89488738 270.22821998 -16.29711914 267.06469727 C-17.96807446 265.03870886 -19.68104593 263.42744512 -21.68359375 261.734375 C-25.97153198 258.04786569 -30.08608473 254.20422171 -34.1875 250.3125 C-39.30851663 245.47257598 -44.43896242 240.64524503 -49.625 235.875 C-54.93285164 230.9927074 -60.20801555 226.0764645 -65.47387695 221.14892578 C-69.39330943 217.48578146 -73.3426364 213.8583213 -77.3125 210.25 C-81.91328404 206.05062665 -86.32335554 201.70122685 -90.69921875 197.26953125 C-92.76042064 195.23632531 -94.86606656 193.32201389 -97.0625 191.4375 C-113.0164611 177.65762579 -127.29507869 159.64385479 -133 139 C-133.26852783 138.07719238 -133.26852783 138.07719238 -133.54248047 137.13574219 C-141.07521999 110.4501384 -138.42434966 81.13356926 -127 56 C-126.34 56 -125.68 56 -125 56 C-124.88269531 55.26652344 -124.76539063 54.53304687 -124.64453125 53.77734375 C-120.77608869 37.10787307 -101.55350463 21.27838362 -87.875 12.6875 C-79.73581134 7.62196277 -71.74595059 3.67673069 -62.5625 0.875 C-61.37043945 0.49794922 -61.37043945 0.49794922 -60.15429688 0.11328125 C-57.7779846 -0.62532842 -55.3948616 -1.32409134 -53 -2 C-51.93821533 -2.30236572 -51.93821533 -2.30236572 -50.85498047 -2.61083984 C-34.69369468 -6.72951569 -15.73991773 -5.23336334 0 0 Z " fill="#030303" transform="translate(155,13)"/>
<path d="M0 0 C-1.51968265 3.86828312 -3.79802729 5.43842183 -7 8 C-8.14526578 9.27373234 -9.26867673 10.56730103 -10.375 11.875 C-16.3212097 18.72717727 -20.34822298 22.05296027 -29.28125 24.17578125 C-35.01431426 25.91382228 -39.40028893 29.44311657 -42.5 34.5625 C-45.01997191 40.42368466 -45.46695536 47.9344235 -43.29394531 53.95678711 C-40.95175949 59.06762257 -37.80354281 62.72579646 -33.75 66.5625 C-32.87577393 67.4124353 -32.87577393 67.4124353 -31.98388672 68.27954102 C-28.51152061 71.63275257 -24.96422237 74.87883698 -21.28125 78 C-17.98138166 80.89303525 -14.81584806 83.92525446 -11.625 86.9375 C-5.96306426 92.26841076 -0.20326938 97.3001112 6 102 C6.495 100.515 6.495 100.515 7 99 C8.12223135 97.80975463 9.26081517 96.63146554 10.46899414 95.52856445 C12.08221268 94.00701782 12.08221268 94.00701782 13.40405273 91.99291992 C16.5332183 87.95044618 18.80191237 86.19790737 23.92993164 85.35083008 C28.62709829 85.11334074 33.30477008 85.30104163 38 85.5 C39.64965313 85.54018012 41.29940043 85.57667295 42.94921875 85.609375 C46.96849196 85.69701949 50.9831995 85.83475188 55 86 C55 87.32 55 88.64 55 90 C54.34 90 53.68 90 53 90 C52.79375 90.66 52.5875 91.32 52.375 92 C48.31904708 100.84935182 40.86528234 107.31459405 34 114 C32.33084763 115.66417725 30.66393219 117.33060334 29 119 C21 127 13 135 5 143 C0.91620659 141.64827153 -1.37683519 139.93063758 -4.3125 136.8125 C-7.13772017 133.88437445 -9.96871068 131.08061923 -13.0625 128.4375 C-15.8322046 126.06268398 -18.44009866 123.59982183 -21 121 C-23.45912095 118.50290035 -25.95093786 116.13941858 -28.625 113.875 C-33.28467113 109.87836508 -37.53572575 105.49028586 -41.8503418 101.13012695 C-45.53472527 97.42188668 -49.29970847 93.89099403 -53.2734375 90.4921875 C-61.86227588 83.06925478 -68.36151268 74.3780297 -73 64 C-73.5878125 62.7625 -73.5878125 62.7625 -74.1875 61.5 C-78.53798848 48.11388159 -76.25839245 32.37546636 -70 20 C-68.14647224 17.20069781 -66.1085512 14.60857905 -64 12 C-63.34 11.01 -62.68 10.02 -62 9 C-61.34 9 -60.68 9 -60 9 C-60 8.34 -60 7.68 -60 7 C-58.42578125 5.59765625 -58.42578125 5.59765625 -56.3125 4.0625 C-55.62800781 3.55847656 -54.94351563 3.05445312 -54.23828125 2.53515625 C-36.92848395 -9.33700839 -18.58727716 -7.55746434 0 0 Z " fill="#040404" transform="translate(150,73)"/>
<path d="M0 0 C0.99 0.33 1.98 0.66 3 1 C-11.19 15.19 -25.38 29.38 -40 44 C-40.66 43.67 -41.32 43.34 -42 43 C-40.43910887 41.2693809 -38.87621088 39.54057173 -37.3125 37.8125 C-36.44238281 36.84957031 -35.57226562 35.88664062 -34.67578125 34.89453125 C-32.1736379 32.18783311 -29.6970894 29.51330137 -27 27 C-26.34 27 -25.68 27 -25 27 C-24.79375 26.443125 -24.5875 25.88625 -24.375 25.3125 C-22.8570529 22.75958897 -21.03966431 21.31993959 -18.72265625 19.50390625 C-16.00768025 17.13368911 -13.79764537 14.35478861 -11.515625 11.57421875 C-10.76539063 10.79498047 -10.76539063 10.79498047 -10 10 C-9.34 10 -8.68 10 -8 10 C-8 9.34 -8 8.68 -8 8 C-6.3777546 6.29006566 -4.70586575 4.62652316 -3 3 C-2.401875 2.401875 -1.80375 1.80375 -1.1875 1.1875 C-0.795625 0.795625 -0.40375 0.40375 0 0 Z " fill="#272727" transform="translate(202,44)"/>
<path d="M0 0 C0 3 0 3 -2.47851562 5.8190918 C-3.61342476 6.9535252 -4.75660841 8.07971791 -5.90625 9.19921875 C-6.50554321 9.79426712 -7.10483643 10.38931549 -7.72229004 11.00239563 C-9.64128092 12.90457052 -11.57043112 14.79606205 -13.5 16.6875 C-14.80146301 17.97392 -16.10225318 19.2610211 -17.40234375 20.54882812 C-20.59380369 23.70718002 -23.79441498 26.85598797 -27 30 C-27.66 29.67 -28.32 29.34 -29 29 C-24.92138305 24.09291398 -20.69172181 19.70913711 -15.83203125 15.57421875 C-13.42201894 13.50335529 -11.21940464 11.27353646 -9 9 C-7.39719222 7.3944756 -5.7929165 5.79041586 -4.1875 4.1875 C-3.39730469 3.39730469 -2.60710937 2.60710937 -1.79296875 1.79296875 C-1.20128906 1.20128906 -0.60960937 0.60960937 0 0 Z " fill="#DDDDDD" transform="translate(178,255)"/>
<path d="M0 0 C0.66 0.33 1.32 0.66 2 1 C-4.47251453 8.83514917 -11.77773464 15.86788775 -19 23 C-19.66 22.67 -20.32 22.34 -21 22 C-19.27538679 20.07906479 -17.54557391 18.163278 -15.8125 16.25 C-15.32974609 15.71117188 -14.84699219 15.17234375 -14.34960938 14.6171875 C-11.43143138 11.40523319 -8.42477081 8.68427983 -5 6 C-3.43494459 4.35870717 -3.43494459 4.35870717 -2.1875 2.75 C-1.1046875 1.38875 -1.1046875 1.38875 0 0 Z " fill="#CFCFCE" transform="translate(202,87)"/>
<path d="M0 0 C0 3 0 3 -2.40625 5.69921875 C-3.4299968 6.70302243 -4.4616054 7.69885649 -5.5 8.6875 C-6.02464844 9.19861328 -6.54929687 9.70972656 -7.08984375 10.23632812 C-8.38660904 11.49772708 -9.69246117 12.74977212 -11 14 C-11.66 13.67 -12.32 13.34 -13 13 C-11.71520959 11.49410612 -10.42195918 9.99542625 -9.125 8.5 C-8.04605469 7.24703125 -8.04605469 7.24703125 -6.9453125 5.96875 C-6.30335937 5.3190625 -5.66140625 4.669375 -5 4 C-4.34 4 -3.68 4 -3 4 C-3 3.34 -3 2.68 -3 2 C-2.01 1.34 -1.02 0.68 0 0 Z " fill="#CDCDCD" transform="translate(78,57)"/>
<path d="M0 0 C0 3 0 3 -1.6796875 5.04296875 C-2.76636719 6.10451172 -2.76636719 6.10451172 -3.875 7.1875 C-4.95394531 8.26064453 -4.95394531 8.26064453 -6.0546875 9.35546875 C-8 11 -8 11 -10 11 C-8.55218207 7.55571735 -6.72305391 5.63869038 -3.875 3.25 C-3.15054688 2.63640625 -2.42609375 2.0228125 -1.6796875 1.390625 C-0.84824219 0.70226562 -0.84824219 0.70226562 0 0 Z " fill="#C1C1C1" transform="translate(181,190)"/>
</svg>
